<svg width="240px" height="53px" viewBox="0 0 2279 460" version="1.1" xmlns="http://www.w3.org/2000/svg">
<g id="#2b2929ff">
<path fill="#2b2929" opacity="1.00" d=" M 1421.71 3.74 C 1436.22 0.37 1451.29 -0.37 1466.08 1.34 C 1484.89 2.66 1503.06 8.74 1519.71 17.39 C 1520.47 18.38 1520.06 19.77 1520.27 20.93 C 1520.86 40.64 1521.60 60.34 1522.22 80.05 C 1520.11 80.04 1518.01 80.04 1515.93 80.05 C 1508.63 66.34 1501.35 52.62 1494.08 38.89 C 1492.90 36.80 1492.07 34.30 1489.86 33.08 C 1480.43 26.77 1470.32 20.78 1458.93 19.04 C 1442.44 16.67 1425.14 19.60 1410.48 27.56 C 1394.91 35.94 1382.53 49.62 1374.75 65.42 C 1365.78 83.13 1362.85 103.34 1363.56 123.02 C 1364.13 143.29 1368.21 163.89 1378.43 181.60 C 1386.21 195.53 1397.96 207.42 1412.46 214.30 C 1421.65 218.72 1431.81 221.08 1442.01 221.22 C 1453.95 221.38 1466.17 220.03 1477.19 215.15 C 1483.92 212.21 1490.67 208.99 1496.58 204.59 C 1504.56 191.65 1512.27 178.53 1520.04 165.46 C 1522.05 165.41 1524.06 165.40 1526.10 165.42 C 1524.70 184.25 1523.27 203.08 1521.90 221.92 C 1504.74 230.37 1486.27 236.76 1467.12 238.43 C 1446.48 240.26 1425.31 240.29 1405.20 234.72 C 1388.23 230.14 1372.41 221.38 1359.55 209.41 C 1345.51 196.36 1335.40 179.27 1330.18 160.87 C 1324.66 140.99 1324.01 119.72 1328.41 99.56 C 1338.93 53.92 1375.91 14.78 1421.71 3.74 Z" />
<path fill="#2b2929" opacity="1.00" d=" M 6.20 4.19 C 24.16 4.16 42.12 4.16 60.08 4.19 C 61.96 3.94 62.69 6.00 63.79 7.11 C 105.32 58.26 146.92 109.35 188.48 160.48 C 190.96 163.40 193.17 166.57 195.90 169.29 C 195.82 120.63 196.09 71.98 195.77 23.33 C 183.69 19.06 171.82 14.23 159.77 9.87 C 159.74 7.96 159.74 6.06 159.77 4.15 C 189.39 4.25 219.01 4.07 248.63 4.24 C 248.61 6.05 248.62 7.86 248.65 9.68 C 239.34 14.44 229.85 18.85 220.49 23.51 C 220.50 82.00 220.49 140.48 220.50 198.97 C 220.59 211.80 220.30 224.64 220.64 237.47 C 215.56 238.12 210.41 237.64 205.30 237.72 C 156.67 177.78 107.75 118.07 59.15 58.10 C 58.99 60.07 58.88 62.05 58.90 64.03 C 59.02 114.95 58.76 165.87 59.03 216.79 C 71.04 221.16 82.91 225.92 94.94 230.24 C 95.06 232.15 95.11 234.07 95.12 235.99 C 65.36 236.00 35.61 236.01 5.86 235.99 C 5.85 234.05 5.90 232.11 6.07 230.18 C 15.58 225.68 25.01 221.00 34.38 216.20 C 34.33 152.41 34.22 88.62 34.43 24.83 C 25.24 19.48 15.62 14.85 6.24 9.82 C 6.23 7.95 6.22 6.07 6.20 4.19 Z" />
<path fill="#2b2929" opacity="1.00" d=" M 2004.98 51.90 C 2014.35 44.02 2025.77 38.50 2037.87 36.47 C 2059.88 33.06 2082.74 38.35 2102.07 48.99 C 2103.21 64.25 2103.99 79.55 2104.95 94.83 C 2103.03 94.80 2101.14 94.78 2099.27 94.75 C 2094.47 85.32 2089.44 76.00 2084.62 66.58 C 2083.89 65.28 2083.26 63.86 2082.03 62.98 C 2073.76 56.58 2063.53 52.67 2053.04 52.35 C 2043.04 51.96 2032.32 53.81 2024.48 60.45 C 2014.63 68.47 2012.11 83.43 2017.21 94.76 C 2020.95 102.10 2028.16 106.78 2035.15 110.67 C 2052.61 120.43 2071.31 127.93 2088.08 138.93 C 2096.67 144.45 2104.61 151.73 2108.72 161.27 C 2112.62 170.64 2113.35 181.13 2112.13 191.13 C 2110.12 206.54 2099.71 219.78 2086.67 227.70 C 2070.46 237.83 2050.77 240.53 2031.99 239.25 C 2013.97 238.53 1996.45 232.86 1980.53 224.59 C 1979.68 208.71 1978.40 192.86 1977.50 176.99 C 1979.32 177.00 1981.18 177.00 1983.05 176.99 C 1988.81 187.23 1994.54 197.47 2000.24 207.73 C 2001.47 210.42 2004.24 211.75 2006.59 213.33 C 2017.35 220.22 2030.38 222.57 2043.00 222.65 C 2053.31 222.60 2064.27 221.07 2072.81 214.80 C 2078.81 210.49 2082.18 203.31 2082.90 196.07 C 2083.76 188.07 2082.83 179.09 2077.25 172.86 C 2070.71 165.82 2061.83 161.70 2053.22 157.81 C 2040.22 151.58 2026.85 146.04 2014.32 138.88 C 2006.14 134.00 1998.10 128.38 1992.46 120.58 C 1985.73 110.91 1984.10 98.56 1985.14 87.06 C 1986.54 73.20 1994.54 60.79 2004.98 51.90 Z" />
<path fill="#2b2929" opacity="1.00" d=" M 2170.61 51.65 C 2180.10 43.75 2191.67 38.26 2203.91 36.36 C 2225.69 33.12 2248.03 38.58 2267.30 48.79 C 2268.61 64.10 2269.31 79.50 2270.23 94.85 C 2268.27 94.83 2266.34 94.78 2264.44 94.63 C 2259.75 85.02 2254.54 75.68 2249.72 66.14 C 2248.09 62.51 2244.21 60.87 2241.07 58.83 C 2229.85 52.30 2216.10 50.79 2203.54 53.69 C 2196.66 55.33 2190.12 58.99 2185.77 64.64 C 2180.22 71.73 2178.92 81.47 2180.85 90.10 C 2182.67 98.14 2189.26 103.87 2195.97 108.04 C 2211.01 117.05 2227.27 123.77 2242.53 132.38 C 2252.42 138.04 2262.62 144.05 2269.49 153.40 C 2277.43 164.08 2279.04 178.22 2277.46 191.09 C 2275.26 208.11 2262.90 222.29 2248.01 229.97 C 2230.67 239.39 2210.24 240.71 2190.96 238.75 C 2175.18 237.35 2160.14 231.71 2146.00 224.83 C 2144.82 208.89 2143.86 192.93 2142.79 176.99 C 2144.94 177.34 2148.40 175.89 2149.39 178.67 C 2154.55 188.15 2159.94 197.50 2165.13 206.97 C 2166.81 210.87 2170.95 212.62 2174.34 214.77 C 2184.53 220.55 2196.45 222.51 2208.05 222.65 C 2218.38 222.62 2229.36 221.14 2237.95 214.93 C 2244.10 210.60 2247.55 203.28 2248.24 195.91 C 2249.09 187.85 2248.08 178.82 2242.36 172.62 C 2234.71 164.54 2224.11 160.44 2214.24 155.82 C 2202.58 150.22 2190.59 145.24 2179.39 138.73 C 2171.45 133.98 2163.66 128.50 2158.08 121.00 C 2151.08 111.25 2149.39 98.64 2150.49 86.93 C 2151.92 72.99 2160.05 60.52 2170.61 51.65 Z" />
<path fill="#2b2929" opacity="1.00" d=" M 280.74 220.75 C 306.99 159.78 332.68 98.53 358.85 37.52 C 364.90 37.58 370.96 37.53 377.01 37.55 C 401.88 96.20 426.66 154.88 451.50 213.54 C 452.57 215.78 453.14 218.34 454.70 220.31 C 461.36 223.74 468.12 227.03 474.91 230.23 C 474.99 232.15 475.03 234.07 475.06 235.99 C 447.89 236.01 420.72 235.99 393.54 236.00 C 393.51 234.06 393.55 232.12 393.71 230.19 C 401.92 227.01 410.05 223.61 418.13 220.11 C 410.90 202.87 403.55 185.68 396.52 168.35 C 372.37 168.03 348.21 168.33 324.05 168.20 C 317.18 184.66 310.55 201.22 303.71 217.69 C 303.33 218.69 303.01 219.70 302.76 220.75 C 311.28 223.68 319.56 227.26 328.06 230.25 C 328.20 232.16 328.23 234.07 328.23 236.00 C 306.44 236.00 284.65 236.00 262.86 236.00 C 262.85 234.05 262.90 232.10 263.08 230.16 C 269.02 227.15 275.02 224.16 280.74 220.75 M 359.60 80.99 C 350.40 104.26 340.80 127.38 331.38 150.57 C 350.56 150.79 369.74 150.56 388.93 150.68 C 379.89 128.60 370.54 106.65 361.46 84.59 C 360.94 83.34 360.30 82.14 359.60 80.99 Z" />
<path fill="#2b2929" opacity="1.00" d=" M 1839.06 37.64 C 1845.12 37.39 1851.20 37.68 1857.28 37.47 C 1882.52 96.40 1907.28 155.54 1932.32 214.55 C 1933.54 216.91 1933.82 220.33 1936.76 221.23 C 1942.97 224.16 1949.02 227.42 1955.31 230.19 C 1955.41 232.12 1955.44 234.06 1955.45 236.00 C 1928.28 235.99 1901.11 236.01 1873.94 235.99 C 1873.92 234.07 1873.97 232.14 1874.11 230.23 C 1882.30 227.01 1890.42 223.60 1898.53 220.14 C 1891.27 202.85 1884.00 185.56 1876.80 168.24 C 1852.65 168.21 1828.50 168.18 1804.35 168.26 C 1797.35 185.76 1789.94 203.11 1783.05 220.66 C 1791.61 223.76 1800.06 227.15 1808.58 230.37 C 1808.59 232.20 1808.63 234.03 1808.72 235.87 C 1786.89 236.13 1765.06 236.00 1743.23 235.93 C 1743.25 234.07 1743.28 232.21 1743.32 230.36 C 1749.25 226.98 1755.71 224.32 1761.32 220.48 C 1787.32 159.58 1813.26 98.64 1839.06 37.64 M 1834.65 94.47 C 1827.13 113.23 1819.20 131.84 1811.94 150.70 C 1830.99 150.61 1850.04 150.64 1869.10 150.69 C 1868.31 147.46 1866.74 144.50 1865.54 141.43 C 1857.21 121.25 1848.60 101.20 1840.44 80.95 C 1838.08 85.26 1836.61 89.98 1834.65 94.47 Z" />
<path fill="#2b2929" opacity="1.00" d=" M 481.25 39.30 C 543.50 39.27 605.75 39.35 668.00 39.26 C 668.14 59.44 668.27 79.64 667.93 99.82 C 666.09 99.74 664.25 99.69 662.41 99.65 C 656.30 85.42 649.75 71.37 643.75 57.10 C 626.48 56.55 609.18 57.00 591.89 56.87 C 591.91 110.86 591.83 164.85 591.94 218.84 C 602.57 222.60 613.12 226.59 623.78 230.30 C 623.82 232.18 623.86 234.06 623.93 235.94 C 591.12 236.08 558.31 235.95 525.50 236.00 C 525.46 234.05 525.46 232.10 525.71 230.17 C 536.24 226.67 546.54 222.52 557.03 218.87 C 557.21 164.87 557.07 110.87 557.10 56.87 C 539.82 57.01 522.51 56.55 505.25 57.10 C 499.30 71.39 492.99 85.54 486.81 99.74 C 484.95 99.72 483.10 99.71 481.25 99.71 C 481.24 79.57 481.24 59.44 481.25 39.30 Z" />
<path fill="#2b2929" opacity="1.00" d=" M 697.16 39.28 C 724.67 39.33 752.18 39.28 779.68 39.30 C 779.68 41.14 779.70 42.98 779.74 44.82 C 771.72 48.81 763.60 52.62 755.50 56.45 C 755.37 110.54 755.52 164.64 755.43 218.74 C 763.47 222.67 771.56 226.50 779.64 230.34 C 779.67 232.19 779.71 234.04 779.79 235.90 C 752.23 236.13 724.67 235.95 697.11 235.98 C 697.13 234.09 697.16 232.19 697.21 230.30 C 704.95 226.58 712.57 222.61 720.29 218.85 C 720.45 164.83 720.15 110.81 720.44 56.80 C 712.88 52.48 704.90 48.93 697.16 44.95 C 697.15 43.06 697.15 41.17 697.16 39.28 Z" />
<path fill="#2b2929" opacity="1.00" d=" M 804.37 39.49 C 824.91 39.04 845.49 39.43 866.04 39.30 C 873.20 39.45 880.39 38.99 887.55 39.53 C 887.44 41.37 887.36 43.20 887.27 45.04 C 879.09 48.29 870.99 51.75 862.86 55.10 C 880.97 99.36 899.43 143.46 917.46 187.75 C 918.04 187.78 919.20 187.85 919.78 187.89 C 934.63 151.12 949.68 114.43 964.62 77.69 C 967.72 70.30 970.48 62.76 973.84 55.48 C 965.58 51.38 956.72 48.50 948.19 44.98 C 948.18 43.08 948.18 41.18 948.19 39.28 C 969.80 39.29 991.40 39.36 1013.01 39.24 C 1013.12 41.14 1013.15 43.04 1013.15 44.94 C 1007.73 47.94 1002.33 51.00 996.92 54.01 C 995.48 54.59 995.01 56.12 994.43 57.40 C 968.84 117.51 942.91 177.49 917.41 237.64 C 912.34 237.91 907.26 237.69 902.18 237.78 C 876.43 176.84 851.06 115.71 825.13 54.86 C 818.42 51.32 811.44 48.29 804.60 45.00 C 804.53 43.16 804.46 41.33 804.37 39.49 Z" />
<path fill="#2b2929" opacity="1.00" d=" M 1037.05 39.25 C 1073.03 39.37 1109.02 39.26 1145.01 39.30 C 1160.53 39.43 1176.06 39.04 1191.57 39.49 C 1191.28 56.30 1191.65 73.13 1191.38 89.94 C 1189.54 89.91 1187.72 89.90 1185.91 89.91 C 1179.82 78.97 1173.68 68.07 1167.79 57.04 C 1144.20 56.63 1120.59 56.96 1097.00 56.87 C 1096.98 79.69 1097.00 102.51 1096.99 125.34 C 1114.05 125.42 1131.11 125.29 1148.17 125.40 C 1152.30 117.38 1156.20 109.24 1160.18 101.14 C 1162.05 101.14 1163.94 101.14 1165.85 101.14 C 1165.79 123.04 1165.87 144.93 1165.81 166.83 C 1163.93 166.81 1162.06 166.81 1160.21 166.80 C 1156.07 158.93 1152.53 150.65 1148.04 143.01 C 1131.03 142.80 1114.01 142.97 1097.00 142.93 C 1096.97 168.10 1097.00 193.26 1096.99 218.42 C 1123.04 218.51 1149.10 218.34 1175.16 218.50 C 1181.96 205.35 1188.00 191.81 1194.82 178.67 C 1196.61 178.74 1198.42 178.76 1200.24 178.77 C 1200.25 197.85 1200.27 216.93 1200.23 236.00 C 1145.79 235.99 1091.35 236.00 1036.92 236.00 C 1036.90 234.07 1036.95 232.13 1037.08 230.21 C 1045.51 226.63 1053.72 222.54 1062.12 218.90 C 1062.40 164.86 1062.01 110.82 1062.31 56.79 C 1054.05 52.48 1045.39 48.93 1036.96 44.96 C 1036.92 43.06 1036.95 41.15 1037.05 39.25 Z" />
<path fill="#2b2929" opacity="1.00" d=" M 1569.01 39.24 C 1598.38 39.32 1627.76 39.38 1657.14 39.21 C 1657.40 41.13 1657.40 43.07 1657.26 45.01 C 1647.83 48.67 1638.56 52.75 1629.10 56.32 C 1628.63 110.33 1629.05 164.37 1628.89 218.40 C 1653.33 218.52 1677.77 218.36 1702.21 218.48 C 1709.67 201.37 1717.06 184.22 1724.26 167.00 C 1726.16 166.82 1728.09 166.78 1730.05 166.80 C 1730.06 189.86 1730.06 212.93 1730.05 235.99 C 1676.30 236.00 1622.56 236.00 1568.82 236.00 C 1568.79 234.06 1568.83 232.12 1569.02 230.20 C 1577.44 226.60 1585.66 222.57 1594.04 218.88 C 1594.23 164.90 1594.06 110.91 1594.13 56.93 L 1593.70 56.29 C 1585.48 52.51 1577.17 48.90 1569.06 44.91 C 1568.52 43.06 1568.85 41.12 1569.01 39.24 Z" />
</g>
<g id="#e53124ff">
<path fill="#e53124" opacity="1.00" d=" M 765.29 356.25 C 777.10 350.94 790.47 350.68 803.10 352.46 C 810.01 353.46 816.56 356.04 822.78 359.12 C 822.94 368.16 823.77 377.20 823.48 386.23 C 822.92 386.09 821.79 385.79 821.22 385.65 C 817.14 379.69 813.88 373.19 809.87 367.18 C 798.18 356.99 780.07 357.39 767.19 365.17 C 756.36 371.56 749.42 383.51 748.25 395.93 C 747.00 409.72 749.54 424.50 758.26 435.62 C 765.01 444.60 775.89 450.23 787.11 450.63 C 794.04 450.84 801.16 450.37 807.71 447.88 C 807.52 438.80 807.84 429.71 807.54 420.64 C 802.79 418.62 798.17 416.32 793.46 414.26 C 793.51 413.38 793.57 412.51 793.65 411.64 C 807.58 411.73 821.52 411.70 835.46 411.66 C 835.35 412.63 835.97 414.14 834.75 414.66 C 831.37 417.02 827.73 418.97 824.35 421.31 C 824.38 429.21 824.39 437.12 824.37 445.02 C 824.63 446.84 822.70 447.67 821.55 448.64 C 813.36 454.22 803.72 457.41 794.00 459.03 C 787.67 459.04 781.32 458.99 774.99 458.97 C 759.96 456.90 745.88 447.92 738.25 434.72 C 731.05 422.85 729.66 408.13 732.74 394.76 C 736.74 377.75 749.24 363.10 765.29 356.25 Z" />
<path fill="#e53124" opacity="1.00" d=" M 0.94 353.07 C 16.29 353.10 31.64 353.03 46.98 353.11 C 57.87 353.31 69.40 355.07 78.35 361.72 C 85.82 367.33 88.30 377.58 86.62 386.44 C 85.48 392.09 81.93 396.98 77.54 400.60 C 70.60 406.35 61.83 409.53 52.99 410.86 C 45.59 412.04 38.08 411.57 30.62 411.71 C 30.52 424.21 30.63 436.70 30.56 449.20 C 34.77 451.17 39.07 452.92 43.32 454.78 C 44.97 455.16 45.52 456.58 45.32 458.16 C 30.47 458.20 15.62 458.21 0.76 458.16 C 0.80 456.72 1.07 455.12 2.69 454.74 C 6.37 453.00 9.98 451.11 13.71 449.47 C 14.09 420.34 13.73 391.20 13.89 362.06 C 9.68 359.88 5.43 357.77 1.12 355.80 C 1.08 355.12 0.99 353.76 0.94 353.07 M 30.62 361.84 C 30.56 375.63 30.55 389.43 30.62 403.23 C 41.14 403.05 52.93 404.64 61.90 397.89 C 72.73 390.66 72.24 371.50 60.38 365.58 C 51.22 360.84 40.58 361.97 30.62 361.84 Z" />
<path fill="#e53124" opacity="1.00" d=" M 114.03 353.14 C 129.02 353.01 144.00 353.09 158.99 353.10 C 169.09 353.15 180.01 355.16 187.60 362.34 C 194.26 368.46 196.00 378.69 193.05 387.04 C 189.67 395.98 181.28 402.00 172.59 405.22 C 181.68 419.40 191.48 433.13 200.77 447.19 C 202.95 451.19 207.77 452.22 211.35 454.58 C 212.94 455.08 213.38 456.63 213.33 458.16 C 204.84 458.27 196.35 458.06 187.86 458.27 C 177.25 442.34 167.36 425.91 157.01 409.80 C 152.60 409.74 148.20 409.75 143.80 409.79 C 143.76 422.89 143.77 436.00 143.80 449.11 C 147.70 451.27 151.61 453.43 155.57 455.50 C 155.65 456.11 155.82 457.33 155.90 457.94 C 141.97 458.47 128.00 458.09 114.05 458.14 C 114.12 457.47 114.26 456.14 114.33 455.47 C 118.47 453.27 123.19 451.73 126.91 448.97 C 127.23 419.99 126.99 390.98 127.03 361.99 C 122.81 359.87 118.57 357.77 114.30 355.75 C 114.23 355.10 114.10 353.79 114.03 353.14 M 143.80 361.85 C 143.76 375.00 143.76 388.15 143.80 401.31 C 148.89 401.23 154.01 401.64 159.07 400.91 C 165.87 399.90 172.35 395.63 175.26 389.29 C 178.67 381.54 176.89 371.18 169.61 366.26 C 162.14 360.88 152.49 361.88 143.80 361.85 Z" />
<path fill="#e53124" opacity="1.00" d=" M 232.43 353.04 C 246.63 353.14 260.84 353.04 275.04 353.09 C 274.98 353.76 274.87 355.11 274.82 355.78 C 270.51 357.77 266.26 359.87 262.05 362.05 C 262.10 390.73 262.02 419.41 262.09 448.09 C 261.85 449.87 264.03 450.08 265.14 450.83 C 268.34 452.55 271.93 453.71 274.85 455.87 C 274.92 456.44 275.05 457.57 275.12 458.14 C 260.89 458.25 246.66 458.15 232.44 458.19 C 232.45 457.63 232.46 456.51 232.47 455.95 C 236.42 453.14 241.22 451.78 245.34 449.23 C 245.70 420.30 245.46 391.30 245.46 362.35 C 242.18 359.81 238.02 358.58 234.38 356.60 C 232.62 356.23 232.17 354.61 232.43 353.04 Z" />
<path fill="#e53124" opacity="1.00" d=" M 299.90 353.07 C 313.99 353.09 328.08 353.07 342.18 353.07 C 342.11 353.75 341.99 355.12 341.93 355.80 C 337.34 357.66 332.78 359.65 328.29 361.74 C 338.30 385.69 348.20 409.69 358.20 433.64 C 358.93 432.81 359.50 431.88 359.91 430.86 C 369.29 407.59 378.95 384.43 388.27 361.14 C 383.91 359.37 379.60 357.47 375.23 355.73 C 375.18 355.08 375.07 353.77 375.02 353.11 C 386.30 353.12 397.59 352.93 408.87 353.21 C 408.81 353.82 408.70 355.04 408.64 355.65 C 405.65 357.65 401.78 358.63 399.37 361.30 C 385.47 393.85 371.87 426.53 357.97 459.08 C 355.85 458.95 353.50 459.55 351.55 458.59 C 338.14 426.60 324.82 394.57 311.42 362.58 C 310.99 361.07 309.40 360.61 308.20 359.90 C 305.52 358.53 302.85 357.13 300.14 355.83 C 300.08 355.14 299.96 353.76 299.90 353.07 Z" />
<path fill="#e53124" opacity="1.00" d=" M 433.77 353.07 C 447.98 353.08 462.19 353.07 476.41 353.08 C 476.27 353.74 476.00 355.08 475.87 355.74 C 471.95 358.28 467.15 359.48 463.51 362.35 C 463.39 391.32 463.45 420.30 463.49 449.28 C 467.71 451.62 472.40 453.20 476.35 455.98 C 476.32 456.51 476.26 457.57 476.23 458.10 C 462.08 458.29 447.91 458.14 433.76 458.18 C 433.66 456.67 434.05 455.06 435.72 454.67 C 439.47 452.81 443.35 451.19 446.98 449.09 C 446.79 420.08 446.92 391.06 446.91 362.05 C 442.67 359.90 438.41 357.80 434.08 355.84 C 434.00 355.15 433.85 353.76 433.77 353.07 Z" />
<path fill="#e53124" opacity="1.00" d=" M 505.90 353.07 C 520.64 353.08 535.37 353.07 550.11 353.08 C 550.04 353.76 549.91 355.12 549.84 355.80 C 545.06 357.74 540.36 359.90 535.62 361.94 C 535.51 391.10 535.54 420.26 535.60 449.42 C 548.14 449.45 560.68 449.39 573.22 449.45 C 577.03 440.44 580.84 431.42 584.37 422.29 C 585.06 422.19 586.44 421.99 587.13 421.89 C 587.18 433.98 587.15 446.07 587.14 458.16 C 560.02 458.20 532.90 458.22 505.79 458.15 C 505.95 457.47 506.29 456.12 506.46 455.44 C 510.43 453.31 514.50 451.35 518.62 449.53 C 519.14 420.39 518.66 391.22 518.86 362.07 C 514.66 359.86 510.39 357.80 506.10 355.78 C 506.05 355.10 505.95 353.75 505.90 353.07 Z" />
<path fill="#e53124" opacity="1.00" d=" M 615.55 353.07 C 642.25 353.15 668.95 352.95 695.64 353.17 C 695.31 362.38 695.97 371.63 695.30 380.82 C 692.55 380.93 691.82 378.18 690.68 376.28 C 688.10 371.48 685.33 366.79 682.82 361.96 C 670.28 361.78 657.72 361.67 645.18 362.01 C 645.36 374.55 645.14 387.08 645.30 399.62 C 654.08 399.53 662.86 399.58 671.64 399.59 C 674.40 395.34 676.79 390.84 679.63 386.64 C 680.27 386.46 681.56 386.12 682.21 385.95 C 682.47 397.71 682.39 409.50 682.26 421.27 C 681.69 421.28 680.54 421.29 679.97 421.30 C 676.86 417.21 674.53 412.59 671.66 408.34 C 662.86 408.34 654.06 408.36 645.27 408.33 C 645.16 421.95 645.38 435.58 645.15 449.20 C 659.08 449.69 673.06 449.33 687.01 449.38 C 690.50 442.40 693.95 435.41 697.49 428.45 C 698.05 428.38 699.18 428.23 699.75 428.16 C 700.38 438.14 699.87 448.17 700.01 458.16 C 671.87 458.20 643.72 458.19 615.57 458.17 C 615.60 457.60 615.65 456.46 615.68 455.89 C 619.69 453.24 624.27 451.56 628.50 449.27 C 628.48 420.12 628.67 390.97 628.40 361.82 C 624.22 359.86 620.01 357.91 615.95 355.71 C 615.85 355.05 615.65 353.73 615.55 353.07 Z" />
<path fill="#e53124" opacity="1.00" d=" M 861.97 353.12 C 888.64 353.02 915.32 353.11 941.99 353.07 C 942.08 362.22 941.99 371.37 942.04 380.53 C 941.36 380.41 939.99 380.18 939.31 380.06 C 936.02 374.46 933.02 368.68 929.81 363.03 C 929.23 361.41 927.31 361.94 926.02 361.80 C 914.60 361.87 903.17 361.80 891.75 361.83 C 891.59 374.34 891.84 386.85 891.62 399.36 C 900.49 399.81 909.39 399.55 918.27 399.48 C 920.83 395.02 923.58 390.66 926.23 386.25 C 926.87 386.23 928.15 386.18 928.79 386.16 C 928.87 397.89 928.72 409.63 928.87 421.36 C 928.20 421.30 926.86 421.19 926.19 421.13 C 923.09 417.10 921.19 412.05 917.72 408.41 C 909.15 408.17 900.57 408.53 892.01 408.24 C 891.30 421.91 891.90 435.67 891.71 449.37 C 905.50 449.57 919.30 449.23 933.10 449.54 C 937.20 442.82 940.07 435.40 943.99 428.58 C 944.60 428.50 945.83 428.36 946.44 428.28 C 946.49 438.25 946.56 448.23 946.41 458.20 C 918.24 458.15 890.07 458.24 861.91 458.15 C 862.05 457.48 862.33 456.14 862.48 455.47 C 866.46 453.06 871.23 451.76 874.89 448.95 C 875.11 419.98 874.92 390.99 874.98 362.01 C 870.75 359.89 866.53 357.77 862.24 355.78 C 862.17 355.12 862.04 353.78 861.97 353.12 Z" />
</g>
</svg>
